<svg xmlns:xlink="http://www.w3.org/1999/xlink" width="76" height="76" viewBox="0 0 76 76" fill="none" xmlns="http://www.w3.org/2000/svg">
<circle cx="38" cy="38" r="38" fill="#075FE4"/>
<path d="M51.7847 32.0674C51.7847 32.0674 47.7637 44.6963 47.4361 45.7388C47.3169 44.6665 44.3682 22 44.3682 22C37.5176 22 33.854 26.8848 31.918 32.0376C31.918 32.0376 27.0332 44.6963 26.6162 45.7686C26.5864 44.7857 25.8716 32.1865 25.8716 32.1865C25.4546 25.8721 19.6763 22.0298 15 22.0298L20.6592 56.3721C27.8374 56.3423 31.7095 51.4873 33.7349 46.3345C33.7349 46.3345 38.0537 35.165 38.2324 34.6587C38.2622 35.1353 41.3301 56.3721 41.3301 56.3721C48.5381 56.3721 52.4102 51.815 54.4951 46.8408L64.5923 22.0298C57.4737 22.0298 53.7207 26.8848 51.7847 32.0674Z" fill="white"/>
</svg>